<svg xmlns="http://www.w3.org/2000/svg" viewBox="0 0 1380.62 1083.54"><g id="Layer_2" data-name="Layer 2"><g id="Layer_1-2" data-name="Layer 1"><path d="M0,13.33C6.89,3.07,16.48,0,28.73,0q304,.39,607.95.19c5.38,0,10.79-.32,15.86,2.15,8.68,4.23,12.75,11.17,11.65,20.71s-6.85,15.52-16.3,17.12c-4.81.82-9.85.45-14.79.45q-288.47,0-576.94-.31c-13.25,0-16.76,3.45-16,16.32,1.14,19.71.7,39.54.11,59.29-.26,8.51,2.67,11.5,10.78,10.37a50.49,50.49,0,0,1,6.74,0q632.88,0,1265.76.31c13.38,0,18-2.81,17-16.76-1.36-18.77-.91-37.74-.11-56.58.43-10-2.35-12.91-12.61-12.83-63.35.49-126.71.24-190.06.24q-194.79,0-389.57,0c-4.94,0-9.95.34-14.81-.35-9.52-1.35-15.43-7.05-16.73-16.66C715.24,13.52,719.4,6.23,728.84,2,734.43-.44,740.31.21,746.11.21q301.95,0,603.9,0c25.09,0,30.59,5.61,30.6,31.06q0,53.91,0,107.84c0,20.8-6.64,27.56-27.28,27.58-74.14.06-148.28.23-222.42-.21-10.48-.06-14,2.64-13.62,13.4.8,21.08.86,42.25,0,63.33-.46,11.07,3.59,13.75,13.79,13.12,13-.8,26-.29,39.08-.17,18.84.16,25.92,7.09,26,26.21.2,35.94.5,71.9-.19,107.83-.22,11.54,2.4,18.94,13.32,24.7,17.88,9.44,33.58,22.41,48.75,35.82,11.32,10,13.18,22.7,4.93,31.74-7.85,8.6-20.13,8.45-31.13-1.14-64.94-56.54-140.54-81.8-226.44-81.46-213.43.82-426.86.08-640.3.33-155.46.19-285,103.71-317.45,255.82-21.33,100.11,3.12,190.43,67,270.16,13.52,16.88,15,27.09,4.64,36.2-10.87,9.52-22,6.28-35.85-10.66C38.18,896.46,10.74,833.61,2.48,762.53,2.07,759,.84,755.62,0,752.17v-62c.73-2.06,1.86-4.07,2.12-6.19,14.46-118.64,73.16-209.08,174-272.39,6.91-4.34,8.37-9.25,8.33-16.48-.22-35-.11-70-.09-105.08,0-29.24,4.57-33.89,33.23-33.9,11.67,0,23.37-.46,35,.16,8.24.44,10.93-2.36,10.75-10.62-.47-22-.77-44,.1-66,.44-11.12-3.72-13.21-13.84-13.16-73.65.38-147.3,0-220.94.41C16.44,167,6.88,163.81,0,153.55ZM691,166.7H366.06c-17.53,0-35.07.34-52.58-.15-7.76-.21-10.05,2.55-9.93,10.06.36,23.36.42,46.74,0,70.1-.15,8.11,3.24,9.77,10.4,9.52,12.56-.44,25.16-.13,37.74-.11,24.93,0,30.55,5.76,30.58,31.23,0,18.87,1,37.81-.32,56.6-.92,13.64,4.12,16.05,16.62,16,99.31-.5,198.62-.28,297.94-.28,96.17,0,192.34-.15,288.5.21,10.47,0,14-2.68,13.6-13.45-.82-21.54-.41-43.14-.19-64.71.19-18.15,7.46-25.35,25.39-25.56,13-.16,26.11-.74,39.08.18,10.88.77,15-2.11,14.48-13.81-1-20.63-.92-41.36,0-62,.5-11.37-3.2-14.11-14.28-14.08C939,166.84,815,166.7,691,166.7ZM284,296.68c-16.17,0-32.35.39-48.5-.17-8.2-.28-11,2.36-10.85,10.63.44,22.9.53,45.82,0,68.71-.25,10.07,3.32,9.79,11,6.86,31.19-11.91,63.44-19.44,96.81-21.54,6.68-.42,9.65-2.48,9.48-9.58q-.57-22.89,0-45.8c.18-7.11-2.48-9.38-9.41-9.23C316.36,296.93,300.18,296.68,284,296.68Zm813.26,0c-16.62,0-33.24.19-49.85-.11-6.34-.11-8.84,2.07-8.72,8.52q.42,23.56,0,47.15c-.11,6.39,2.57,8.49,8.72,8.88,34.29,2.14,67.38,10,99.44,22.16,6.15,2.34,9,2.27,9-5.41q-.33-36.37,0-72.75c.05-6.34-2.29-8.68-8.71-8.56C1130.52,296.9,1113.89,296.68,1097.28,296.69Z"/><path d="M690.09,1083.51H366.56c-68.46,0-132.31-16.87-191-52.4-4.6-2.78-9.43-5.44-13.36-9-8-7.32-9.32-16.5-3.54-25.52s14.27-12,24.55-7.57a50.05,50.05,0,0,1,7.07,3.87c55.07,34.81,115.35,50.37,180.29,50.29,214.34-.25,428.68.49,643-.32,119-.45,213.74-50.46,276.67-151.42,67.16-107.75,67.07-219.6,6.15-331.16-1.93-3.54-4.29-6.86-6.1-10.46-5.65-11.21-2.87-22.59,6.7-28.17s21-2.74,27.87,8A340.21,340.21,0,0,1,1367,623.84c58.93,213.65-83.68,428.21-303.66,456.59-17.76,2.29-35.84,2.9-53.78,2.94Q849.84,1083.78,690.09,1083.51Z"/><path d="M1021.18,723.87c0-43.13-.07-86.26,0-129.4,0-21.16,6-27,27.43-27.15,21.57-.12,43.14.21,64.7-.08,34.76-.46,62.56,12.39,79.32,43.54,16.38,30.44,13.83,60.73-6.42,88.72-6.3,8.71,1.31,9.7,5.11,12.75,52.26,41.88,46.57,121.9-11.15,154.81-13.49,7.69-28,12-43.64,12.06-30.55,0-61.1.18-91.65.08-17.84-.06-23.56-5.51-23.64-23.24C1021.05,811.93,1021.19,767.9,1021.18,723.87Zm40.44,61.76c0,14.33.45,28.69-.18,43-.37,8.52,2.83,10.69,10.85,10.48,21-.54,42.12.08,63.16-.48,29.3-.78,51.38-23.89,51.27-52.94s-22.42-51.81-51.83-52.44c-21-.45-42.12.37-63.15-.24-8.78-.25-10.53,3.23-10.26,11C1062,757.84,1061.61,771.74,1061.62,785.63Zm0-135.16c0,11.23.22,22.46-.09,33.68-.18,6.38,2.21,8.72,8.64,8.59,15.71-.33,31.44.08,47.16-.15,26-.39,44.73-18,45-42,.24-24.35-17.73-42.07-44-42.79-15.26-.42-30.56.39-45.8-.27-9.35-.41-11.51,3.56-11.06,11.91C1062,629.78,1061.61,640.14,1061.64,650.47Z"/><path d="M711.53,687.46c0-31.89-.08-63.78.05-95.66.06-15.23,7-23.75,19.28-24.18,12.61-.44,21,8.71,21,24.12.16,58.84,0,117.67.09,176.51.06,41.49,30.37,70.8,73,70.77,44.16,0,75.46-29.65,75.51-71.64q.1-87.58-.06-175.16c0-10.83,2.57-19.72,13.76-23.51,14.37-4.87,26.55,5.27,26.68,22.57.25,33.24.08,66.47.08,99.71q0,37.05,0,74.1c0,60.76-38.13,104.53-98.67,113.37-59.82,8.74-119.81-30.65-129.29-86-3.87-22.59-1-45.73-1.39-68.61C711.36,711.72,711.53,699.59,711.53,687.46Z"/><path d="M303.49,567.48c35.13,0,62.89,7.68,88.31,23.42,13.28,8.22,17.13,19.65,10.64,30.29-6.67,10.91-17.55,12.34-31.66,4.18-73.24-42.36-160.38-3-175.49,79.25-14.7,80,62.1,151.67,140.66,131.24,16.1-4.19,29.45-12.69,40.91-24.65,11.77-12.27,23.34-13.49,32.58-4,8.72,8.93,7.52,20.14-3.44,32-41.51,45-115.59,53.59-173.69,20.06C170.4,823.53,140.72,753,158.59,684,176.35,615.47,236.6,568.68,303.49,567.48Z"/><path d="M495.76,722.51q0-62.61,0-125.21c0-20.74,6.48-30.09,20.49-29.73,13.34.34,19.93,10,19.94,29.38,0,75.84.27,151.68-.27,227.52-.08,11.64,2.46,15.72,14.69,15,18.78-1.17,37.68-.63,56.52-.4,14.82.18,23.68,7.9,23.83,20s-8.78,20.1-23.35,20.19q-43.75.27-87.51,0c-17.39-.13-24.25-7.2-24.3-24.72C495.68,810.47,495.76,766.49,495.76,722.51Z"/></g></g></svg>