<svg xmlns="http://www.w3.org/2000/svg" viewBox="0 0 313.95 325.6"><g id="Layer_2" data-name="Layer 2"><g id="Layer_1-2" data-name="Layer 1"><path d="M68,0H98.48c9.7,3.89,11.44,6.48,11.44,17.12,0,4.87.17,9.75-.07,14.6-.14,2.9.7,3.69,3.63,3.68,27.73-.11,55.46-.07,83.2-.07,7.37,0,7.37,0,7.37-7.42V17.11c0-10.63,1.74-13.23,11.44-17.11H246c.38.65,1.09.54,1.68.72,7.91,2.38,11.22,6.83,11.24,15.11,0,5.61.08,11.23,0,16.85-.05,2.12.7,2.72,2.74,2.69,7.53-.09,15.05,0,22.57,0a30.13,30.13,0,0,1,11.19,1.95c11.54,4.56,18.54,15,18.54,28.11q0,112.7,0,225.39a54.34,54.34,0,0,1-.51,7c-2,15.8-14.8,27.81-29.75,27.82q-126.69,0-253.37,0a27.29,27.29,0,0,1-20-8.32C2.84,309.79,0,300.54,0,290.14Q0,177.93,0,65.7c0-17.78,12.3-30.23,30.07-30.36,7.42-.05,14.84-.06,22.25,0,2.05,0,2.79-.58,2.74-2.7C55,26.74,55,20.8,55,14.87c.05-6.93,3.2-11.27,9.72-13.67C65.82.81,67.09.93,68,0ZM157.2,125.49q-68.83,0-137.66-.07c-3.07,0-3.84.75-3.83,3.82q.15,80.59.07,161.19c0,1.17,0,2.34.06,3.5.66,10.05,6.85,15.92,16.77,15.92H281.87c7.78,0,12.38-3.15,15-10.25a24.89,24.89,0,0,0,1.34-8.74q0-80.91.05-161.82c0-3-.89-3.61-3.71-3.61Q225.87,125.55,157.2,125.49ZM157,109.9q69,0,138,.06c2.64,0,3.36-.69,3.33-3.33-.12-14,0-28-.06-41.95,0-7.94-5.64-13.65-13.56-13.72-6.25-.06-12.5,0-18.76,0-6.89,0-6.89,0-6.93,7-.05,9.64-6.54,16.33-16.28,16.5-8.15.15-16.32.12-24.47,0a14.21,14.21,0,0,1-13.72-11.12c-.64-2.52-.37-5.06-.4-7.59C204,51,204.05,51,199.44,51h-41c-15.15,0-30.3.07-45.45-.06-2.58,0-3.32.77-3.1,3.21a49.49,49.49,0,0,1,0,6.67c-.39,7.33-6.24,13.45-13.43,13.62-8.68.21-17.38.26-26.06,0-9-.28-15.28-7.09-15.35-16.08,0-1.59-.09-3.18,0-4.77.13-1.83-.4-2.64-2.46-2.61-7.84.11-15.68,0-23.52.07s-13.3,5.89-13.31,13.65c0,13.87.09,27.76,0,41.63,0,2.82.6,3.72,3.6,3.71Q88.14,109.82,157,109.9Zm62-72.54c0,6.14.09,12.28,0,18.42-.05,2.25.43,3.21,2.95,3.14,6.24-.17,12.49-.15,18.73,0,2.31.05,2.81-.81,2.8-2.95q-.13-18.57,0-37.16c0-2.25-.43-3.19-2.93-3.12-6.25.18-12.5.16-18.74,0-2.31,0-2.84.8-2.81,2.93C219,24.87,219,31.11,218.94,37.36ZM94.16,37.18c0-6.24-.06-12.48,0-18.72,0-1.95-.39-2.82-2.59-2.77-5.71.15-11.42.13-17.13,0-2,0-2.72.54-2.7,2.66q.14,18.87,0,37.75c0,2.31.78,2.84,2.91,2.79,5.61-.12,11.21-.11,16.82,0,2,0,2.75-.56,2.71-2.69C94.08,49.87,94.16,43.52,94.16,37.18Z"/><path d="M106.29,272.38c1.71-9.52,2.88-19.46,5.41-29,2.06-7.81.61-13.13-5.82-18.24-7.1-5.64-13.24-12.5-19.87-18.75-2.77-2.61-4.3-5.62-3.09-9.36s4.32-4.94,7.88-5.46c11.41-1.68,22.8-3.5,34.24-5a5.62,5.62,0,0,0,4.89-3.65c5-10.39,10.22-20.68,15.26-31,1.65-3.39,3.86-6,7.85-5.94s6.21,2.49,7.87,5.91c5.16,10.66,10.52,21.23,15.7,31.89a4.35,4.35,0,0,0,3.8,2.72c11.74,1.64,23.45,3.44,35.18,5.19,3.57.53,6.57,1.94,7.68,5.68s-.51,6.55-3.14,9.06c-8.43,8.05-16.77,16.19-25.28,24.15a5,5,0,0,0-1.67,5.23c2.13,11.23,4.1,22.49,6.14,33.73.5,2.75.84,5.46-.9,8-2.51,3.61-6.64,4.43-11.3,2-10.25-5.29-20.51-10.56-30.63-16.09-2.61-1.43-4.53-1.18-7,.13q-15.54,8.31-31.23,16.32C112.3,282.83,105.92,279,106.29,272.38Zm46.78-100.93c-4.37,8.71-8.44,16.72-12.4,24.78a7.68,7.68,0,0,1-6,4.67c-3.24.49-6.5.89-9.75,1.35l-17.13,2.48-.47.86a22.34,22.34,0,0,1,2.55,1.84c5.52,5.26,11,10.58,16.52,15.83,2.4,2.28,3.61,4.93,3,8.25-.68,4.07-1.42,8.13-2.1,12.2-.81,4.83-1.58,9.66-2.48,15.15,8-4.33,15.43-8.22,22.72-12.27a10.29,10.29,0,0,1,10.8-.07c6.66,3.69,13.39,7.27,20.11,10.86.75.4,1.47,1.11,2.64.86-1.13-6.8-1.69-13.62-3.47-20.1-2.24-8.09-.21-13.84,6.24-19.18,5.07-4.2,9-9.73,13.46-14.67a16.62,16.62,0,0,1-2.83-.15c-7-1-14-2.21-21.07-2.91-4.45-.44-7-2.56-8.86-6.5C161.05,187.09,157.14,179.61,153.07,171.45Z"/></g></g></svg>