<svg xmlns="http://www.w3.org/2000/svg" viewBox="0 0 1585.41 680.99"><defs><style>.cls-1{fill:#fff;}</style></defs><g id="Layer_2" data-name="Layer 2"><g id="Layer_1-2" data-name="Layer 1"><path class="cls-1" d="M1268.51,249.78c15.51,6.31,32.18,6,48.49,10.22,9.22-11.79,12.54-27,17.93-40.92s8.73-28.86,15.55-42.18c-1.24-1.23-1.89-2.41-2.83-2.73-7.94-2.73-14.22,4-22,3.85-6.75-.14-14.28-3.09-20.53,2.74-1,.94-3.43.77-5.12.54-13.09-1.82-25.8,2.53-38.21,4.54-16,2.59-33.14,2-48.16,10-21.52-.32-41.31,8.88-62.45,11.34-13.75,1.59-27.35,6.69-40.68,10.84-25.63,8-51.72,14.39-77,23.86-34,12.76-67.68,26-100.2,42.32a603.62,603.62,0,0,0-67,39.06c-11.76,7.94-23.77,16.57-33,28.83-.82-2.3-1.84-3.76-1.47-4.34,14.4-22.79,31.33-42.91,53.26-59.42,13.33-10,26.61-20,40.61-29.06,11.84-7.7,23.51-15.7,36.38-21.54,12.69-5.75,23.87-15,38.34-16.72,31.26-16.71,65-26.83,98.73-37,15.58-4.71,31.13-9.72,47-13.13,6.63-1.42,12.73-6.57,20.16-4,5.43-7.63,14.84-.33,21.18-5.83,5.43-4.7,14.47,2.39,19.59-5,15.83,1,30.4-5.77,45.85-7.6,16.53-2,32.63-7.36,49.56-6.89,8.54-5.93,18.75-1.36,27.34-4.06s17.21-3.91,25.77-2.9c7,.82,11.42-5.57,18.51-4.16,5.72,1.15,11.92.16,17.88-.26,1.25-.09,2.38-1.85,4.17-3.36,2.58,8.37-2.39,13.55-5.53,19.44-12.1,22.71-24.18,45.45-35.84,68.4-10.37,20.4-20.28,41-30.18,61.69-5.54,11.56-12,22.93-15.59,35.11-3.51,11.94-11,21.82-14.14,34.12-2.34,9.24-7.7,18.45-12.09,27.43-9.82,20.07-18.1,40.78-26.87,61.28a21.26,21.26,0,0,1-3.71,5.88v18.49l9.56,8.59h17.2c5.48-2,7.14-8,8.53-12.21,6.93-20.76,16.68-40.17,26.07-59.81,5.52-11.55,10.11-23.57,14.53-35.59s10.47-23.5,15.61-35.14c7.18-16.25,12.58-33.54,23-49.35a307.42,307.42,0,0,1,59.57,22.39c-13.32,28.63-25.81,56.41-38.82,84q-22.11,46.89-43.22,94.29c-5.38,12.14-10.86,24.53-16.49,36.56-8.27,17.69-21.1,31.85-42.09,36-2.41.47-5,2.53-8,2.33-42.47-2.75-84.63,5.62-127.08,3.58-2.25-.1-4.86,1.17-6.85-1.42,1.61-14.57,12.31-26,14.92-40.61,21.37-7.51,44-4.36,67.18-5.07-2.61,10.77-10.35,19.69-10,30.86,2.48,3,5.69,1.73,8.51,1.75,22.24.16,30.7-6.5,38.71-29.09,2.79-7.86,7-15.18,10.16-22.93,1-2.5.51-5.61.85-10.52-12.22,6.33-23.86,4.56-35.35,4.65s-22.94,0-34.41,0c-8.09-5-18.7-7.81-18-20.5-8.53-8-.37-16.05,2.15-21.92,12.77-29.69,25-59.66,37.32-89.5,8.3-20.07,16.9-40.08,24.72-60.36,4.21-10.92,6.84-22.46,12.55-32.8C1264.48,254.29,1266.61,252.2,1268.51,249.78Z"/><path class="cls-1" d="M598.07,681H492.16c-13.1-1.86-15.07-13.48-22.58-19.71-2.18-19.45,7.34-36.17,13.56-53.64,6-16.79,12.72-33.31,18.86-50,7.88-21.46,15.36-43.06,23.43-64.44a37.84,37.84,0,0,0,2.06-6.39c4-21.49,18.18-35.61,36.06-46,6.55-3.8,15.07-4.44,22.81-5.88,4.08-.75,8.48.32,12.63-.22,10.4-1.34,20.77,2.28,31.46-2.66,9.22-4.25,20.23,0,30.92-3.87,13.85-5.05,23.94.09,35.69,11.4,4.12,15-3,27.93-7.28,40.57C679.2,511.3,669.42,542.76,659,574c-6.52,19.56-13.1,39.25-18.94,59.07-6.3,21.38-18.12,36.58-38.83,44.85C600.21,678.31,599.52,679.54,598.07,681Zm-31.53-10.82c-.29-5.85,3.23-9.39,4.77-13.51C577.53,640,583.05,622.9,588.39,606c5.55-17.58,12.41-34.69,17.78-52.33,8.27-27.2,20-53.3,26.54-81.09,7.95-8.57,1.22-15.79-1.87-23.46-4.88,2.44-9.43-3.88-12.34-1.59-4.86,3.83-10.89-1.05-15,3.42,1.55,8.3-5.35,13.52-7.29,20.52-8.51,30.66-21,60-31,90.14-4,12.17-7.88,24.42-12.66,36.3-5,12.4-8,25.42-13.56,37.75-4.09,9.1-9.8,20.54,1.27,30.06C547.45,671.61,556.41,670,566.54,670.17Z"/><path class="cls-1" d="M821.44,549.27c-2.91-12.95,3.3-23.37,7-33.93,8.32-23.65,18.22-46.74,27.3-70.13,6.66-17.16,13-34.46,19.55-51.65,6.25-16.29,11.88-32.78,23.94-46.24,20.53-22.92,12.21-16.57,41.5-30.39,13.13-6.19,25.9-13,39.55-18.23,20.29-7.8,39.83-17.54,59.84-26.52,3.25,1.76,2.51,5.49,1.66,7.56-5.68,13.93-12,27.59-17.89,41.46-5.21,12.33-9,25.17-14.1,37.6-5.86,14.43-12.27,28.7-17.32,43.54-4.11,12-11.23,23.55-14.83,35.37s-8.43,23.38-12.62,34.74c-4.34,11.74-7.68,24.7-16.49,36-9.41,6.68-22,8.45-33.33,13.08-10.86,4.43-22.41,7.1-33.44,11.12S859.9,541.14,848.34,544c-3.37.82-8.49,2.9-11.61,6.95C831.75,557.38,826.52,555.15,821.44,549.27ZM977.28,313.5c-6.45-4.64-11.61-.95-14.89,2.07-6,5.53-14.24,6.94-19,15.89-11.83,22.25-19.9,46.07-30.6,68.75C906.4,413.74,899,427,893.69,441c-5.54,14.62-11.75,28.85-18.12,43.1-3.53,7.91-8.57,16-7.33,26h26.31c3.13-10.78,9.5-20.58,12.69-30.83,4.18-13.45,11.37-25.44,15.53-38.84,4.26-13.72,11.58-26.48,17.37-39.74,9.37-21.42,17.79-43.23,27.72-64.43C971.26,329.05,974.19,321.07,977.28,313.5Z"/><path class="cls-1" d="M766.58,351.52c-10.06-5-16.33-14.55-25.61-20.91-19.66-13.49-39-27.06-60.22-38.31-18.31-9.71-37-18.48-55.67-27.42-24.64-11.81-50.64-20.58-76.61-29.11C526,228.4,503.25,222.21,480.12,217c-14.11-3.19-28.31-7.28-42.19-11.61-8.2-2.56-16.63-3.18-24.81-5.35-16.91-4.5-34.75-5.48-51.46-11.42-12,2.61-22.94-5.8-34.67-3.43-7.07,1.43-11.55-4.82-18.48-4.14-6,.59-13.14,3-18.54-3.1-.8-.91-3.47-.16-5.27-.19-9.29-.17-18.64.91-27.56-3.41a8.78,8.78,0,0,0-8.83,1.18c6.75,17.78,14.11,35.19,19.95,53.09,8.65,26.54,20.64,51.84,28.7,78.61a74,74,0,0,1,2.14,11.73c-3.89-.69-6.84-3.4-7-6.81-.39-6.77-4.2-11.49-7.29-17-18.38-32.66-34.58-66.45-51-100.13-8.07-16.6-17.49-32.56-24.93-49.42-2.46-5.58-12.37-8-4.76-19.82.56-.58,1.16,5.48,4,5,15.47-2.8,30.18,5.31,45.57,3.47,7.24-.87,12.88,4.48,20.26,4,6.67-.42,13.28-.55,20.52,2.59,7.94,3.45,18.58-1.13,27.18,4.32,23.27-.25,45.42,7.24,67.79,11.67,27.44,5.44,56,8.22,81.75,20.84,15,.51,28.76,5.69,42.58,10.89,13.58,5.12,27.49,9.65,41.27,13.86,12,3.65,22.3,10.33,34.18,13.95,17.6,5.38,34.11,14,50.2,23,23.28,13.05,46.13,26.61,67.48,42.88,13.87,10.56,25.36,23.22,37.92,34.92,8.52,7.95,14.09,18.14,20.64,27.6C767.08,347.13,766.09,349.29,766.58,351.52Z"/><path class="cls-1" d="M386.1,122.4V49.15c8.32-6.63,15.25,3.46,23.13,1.86,15.26,8.53,32.87,10.6,48.66,17.92s31.89,13.3,47.88,19.77c28.56,11.55,55.22,26.79,82.86,40.11,13.14,6.34,25.13,15.08,37.61,22.77,9.61,5.92,19.87,11.06,28.58,18.11,8.52,6.92,18.48,12.07,26.28,19.3,11.71,10.86,25.44,19.3,36.08,31.46,8.71,10,18.59,18.89,28,28.22a184.75,184.75,0,0,1,32.35,42.64c1.71,3.12,4.62,5.58,7.13,8.52-3.9,1.6-5.81.83-7.59-1.14-18.52-20.38-41.83-34.64-64.4-49.77-17.3-11.61-35.33-22-53.3-32.59-19.92-11.71-41.81-18.94-61.54-30.92-11.69-7.1-26-9.85-38.94-15-19.78-7.84-40.37-13.19-60.61-19.53-12.84-4-25.87-8.43-39.57-9.42-2.26-.16-4.39.15-6.83-.95-14.75-6.66-31.05-6.56-46.63-9.49C399.05,129.87,392.72,130,386.1,122.4Z"/><path class="cls-1" d="M1212.26,47.39v77.75a30.4,30.4,0,0,1-21.1,5.54c-9.44-1.05-17.83,6.07-27.48,3.6-7.47,6.69-17.47,4.35-26.13,6.73-19.52,5.37-39.3,10-58.57,16.23-11.66,3.8-23.42,7.25-34.92,11.88-11.19,4.51-23,8.7-34.68,12.55-11,3.64-21,10.41-31.8,15a452.26,452.26,0,0,0-49.26,25.13c-19.06,11.05-38.07,22.64-56,36-19.68,14.65-39.65,28.7-56.68,46.57-3-2.41-2-4.41-.19-7.27,21.42-33.74,49.51-61.68,78.46-88.64,14.74-13.72,31.56-25.3,47.88-37.24A370.34,370.34,0,0,1,976,148.88c23.86-13.67,47.71-27.46,72.3-39.72,25.46-12.69,51.38-24.67,77.86-35,24.42-9.54,49.52-17.4,74.12-26.59C1203.42,46.38,1207.37,47.39,1212.26,47.39Z"/><path class="cls-1" d="M1045.6,496c-21.51.3-41,5.76-62.72,8.29,5-13.71,8.91-25.23,13.44-36.49,8.33-20.66,16.64-41.32,24.51-62.17,5.68-15,11.43-30.22,17.81-45,9-21,17.53-42.14,25.31-63.65,7.11-19.65,22-33,40.51-42.2a11.84,11.84,0,0,1,5-1c23.07-.25,45.87-6.22,69-3.6,19.06,2.15,37.4-5.48,56.4-3.72,2.91.27,5.86,0,10.61,0-7.53,24.28-19.81,45.51-26.9,69.64-21.75-4.29-42.48,2.94-65.6,2.85,6.17-21.84,17-40.17,21.86-61.15-9.92-3.34-19.33,6.36-29.29,2.83l-16,16c-2.9,19.49-12.79,36.83-19.76,54.94-7.17,18.63-13.87,37.59-22,55.94-7.9,17.79-13.51,36.57-20.54,54.76S1052.72,478.45,1045.6,496Z"/><path class="cls-1" d="M290.21,490.09c-21.81-3.63-43.17-4-62.16-11,.72-16.52,15.06-26.79,12.85-43.43H204.85c-6.38,12.68-13.35,25.52-14.94,40.58,11.79,11.69,23.32,23.15,34.89,34.58,2.53,2.5,4.82,5.7,7.9,7.13,13,6.05,19,17.73,25.27,29.43,1.94,3.59,2.28,7.85,1,10.19-7.78,14.25-8.92,32-22.8,43.27-5.09,1.82-11.87-1.83-15.9,4.2-1.31-.32-2.41-.56-3.5-.85-25.14-6.66-46.53-21.59-70.1-31.69-8.69-3.72-16-10.33-26.19-11.22-7.91-.68-12-9.74-20.79-11-7.16-1-13.52-5.94-17.76-12.41,4.69-7.15,9.44-14.21,13.94-21.42.83-1.32.65-3.26,1.2-6.51,21.43,4.62,40.82,12.74,59.7,22-1.38,12.51-10.08,20.47-13.76,30.58,10.56,7.18,21.92,11.46,34.31,13.94,8.91-8.74,11.24-20.77,17.15-30-2.44-12.23-10-20.3-18.56-25.78-9.71-6.24-16.7-14.85-25.12-22.13-4.92-4.24-8.14-10.94-14.59-12.74-7-1.94-2.71-12.36-11.19-11.32-.39-19.78,7.76-34.52,20.4-47,7.51-7.4,28.35-11.71,38-8.41,1.63.56,3.17,1.47,4.87,1.27,19-2.19,37.41,6.48,56.39,3.55,9.68-1.49,17.83,4.75,27.49,4,9.13-.7,18.58-1.81,27.58,3.07,3.23,1.75,8.2.28,13.69.28C305.72,450.7,298.31,469.53,290.21,490.09Z"/><path class="cls-1" d="M322.89,644.6c-2.82-.14-5.73,1.1-8.5-.8-15.76-10.85-37.07-9.43-52.49-23,10.84-25,21.8-49.42,32-74.12q22-53.26,44.31-106.42c6.42-15.36,12.85-30.86,19.11-46.34,3.74-9.25,6.19-19.19,12.68-27.46h63.16c0,2.71.84,5.46-.12,7.21-13.6,24.52-20.8,51.67-31.75,77.29-8.28,19.39-16.4,39-22.89,59.27-4.38,13.67-11.56,26.47-16.08,40.34-4.83,14.81-11.66,28.88-16.5,43.81-4.78,14.74-12.29,28.66-19.36,42.56C325.22,639.4,325.46,642.67,322.89,644.6Z"/><path class="cls-1" d="M1410.22,482.09c-4.72-4.56-10.3-5.95-15.22-8L1386.46,457c6.23-18.51,17-35.7,24.74-54.16,8.86-21.18,20.08-41.13,29.22-62.07,6.88-15.77,17.27-23.92,30.36-22.22,30.87,11.26,50.67,33,76.93,44,9.13,10.13,21.84,16.09,30.6,26.78s9.46,19.18,1.87,31c-7.92,12.35-16.21,24.55-22.9,37.56-10.66,20.72-7.35,15.15-24.29,27.58-14.49,0-29-.91-43.43.19C1462.68,487.74,1436.45,479.33,1410.22,482.09Zm72-7.74c10.13-18.6,20.18-36.68,29.85-55,6.26-11.82,10.83-24.71,18.37-35.59,4-5.69,4.38-10.44,4.09-16.34-8-7.4-14.46-17-26.15-19.59-.53.27-1.34.41-1.48.8-7.8,22.22-24.15,40.29-30.64,63.14-10.34,9.56-13,23.59-20.17,35-3.45,5.48-7.24,12-2.36,17.85,2.3,3.54,4.6,7.08,6.26,9.65Z"/><path class="cls-1" d="M723.73,632.47c-26.26,10.72-50,25.49-76.72,39.63L761.19,364.61c10-2.56,18.63-8.95,28-11.33,9.19-2.34,16.49-10.64,26.58-8.86,5.83,7.8-4.86,13-2.3,20-10.91,17.95-13.25,39.13-21.72,57.9-9.44,20.9-14.34,43.33-23.81,64.29-6.59,14.59-10.27,30.64-15.69,45.91-4.67,13.13-10.16,26-14.43,39.21-4.13,12.77-7,25.9-13.69,37.75-2.18,3.86-.75,8.77-4.32,12.82C717.76,624.6,719.34,629.66,723.73,632.47Z"/><path class="cls-1" d="M439.92,553V673.27c-2.23.19-4.14.9-5.62.39-18.23-6.29-37.92-6.34-56-13.18-1-.39-1.73-1.65-2.83-2.75V541.1c4.11-2.5,8.37-.8,12.41-1.32,17.68-12.12,27.54-21.18,38.58-48.74,6.41-16,13.73-31.66,18.76-48.23.46-1.52,2.45-2.59,3.94-4.08h64.32c-2.79,7.87-5,15.12-7.89,22.1-7.22,17.48-10.85,36.47-21.72,52.4S460,543.17,439.92,553Z"/><path class="cls-1" d="M785.84,253.33A796.82,796.82,0,0,0,668.52,146.55c-40.41-30.13-84.69-53.34-129.86-73.33V0C569,16.9,597.6,34.46,624.55,55.1c20.37,15.61,40.29,31.66,59,49.06,21,19.52,38.62,42.08,55.4,65.44,13.6,18.92,26.46,38.11,36.69,59C779.59,236.58,782.48,245.07,785.84,253.33Z"/><path class="cls-1" d="M813.69,258.52c0-3.55-.82-6.35.12-8.31,9-18.62,16.31-38.07,28-55.31q15.32-22.59,30.72-45.13a14,14,0,0,1,2.54-2.57c14.92-12.85,23.9-31.36,39.77-43.08,19.68-14.53,34.39-35.09,56.8-46.18,8.81-11.25,23.3-15.2,32.84-25.54,5.15-5.57,13-6.41,19-11.22,7.78-6.29,17.37-10.31,25.91-15.72,3.47-2.19,6.51-1.7,10.31-.51V73c-45.73,21.32-91.12,44.85-132.46,75.89C884.93,180.65,846.23,215.68,813.69,258.52Z"/><path class="cls-1" d="M57.5,527.55,0,494.4C18.26,464,35.64,435,53.34,405.48c15,1.88,29.63-2.3,44.17,3.59,5.62,2.28,12.93.38,21.29.38-8.39,21.59-21.37,39.2-30.28,58.85C79.76,487.61,67,505.07,57.5,527.55Z"/><path class="cls-1" d="M123.3,395.13c-9.63-1.77-19.63,1.21-30.34-3.13-8.16-3.31-18.75-.66-29.78-.66,1.76-9.9,7.91-16.56,10.52-24.76h66.2C133.22,375.81,131.52,386.74,123.3,395.13Z"/><path class="cls-1" d="M733.76,622.87c20.11-16.21,41.92-29.77,66.83-46.52-3,8-7.64,11.33-4.57,15.49A336,336,0,0,1,733.76,622.87Z"/><path class="cls-1" d="M784.11,251.79c4.86,4.13,5.16,6.43,2.74,8.93C783,259.32,785.34,256.09,784.11,251.79Z"/><path class="cls-1" d="M302.72,326.17c-5.42-.31-3.07-4.49-3.62-7.24C304.52,319.24,302.18,323.43,302.72,326.17Z"/><path class="cls-1" d="M302.13,324.2c4.87,4.13,5.17,6.43,2.75,8.94C301.07,331.73,303.37,328.5,302.13,324.2Z"/><path class="cls-1" d="M726.71,626.68c.31-5.42,4.5-3.07,7.25-3.62C733.65,628.48,729.46,626.14,726.71,626.68Z"/><path class="cls-1" d="M813.67,257.4a2.53,2.53,0,0,1-2.14,3.21c-.29.06-1.13-.79-1.07-1.07A2.52,2.52,0,0,1,813.67,257.4Z"/><path class="cls-1" d="M308.16,337.05c1.69,1.19,1.69,2.4,0,3.59C306.47,339.45,306.47,338.24,308.16,337.05Z"/><path class="cls-1" d="M766.59,351.53a2.52,2.52,0,0,1,3.21,2.15c.07.28-.78,1.12-1.06,1.06A2.52,2.52,0,0,1,766.59,351.53Z"/><path class="cls-1" d="M723.09,630.3q-.14-3.75,3.62-3.62C726.81,629.19,725.6,630.39,723.09,630.3Z"/></g></g></svg>