<svg xmlns="http://www.w3.org/2000/svg" viewBox="0 0 1117.84 1163.5"><g id="Layer_2" data-name="Layer 2"><g id="Layer_1-2" data-name="Layer 1"><path d="M268,1163.5c-12.67-2.64-25.72-4.11-37.95-8.12-70.88-23.22-115.37-70.47-129.85-144.59-5.06-25.89-4.82-52-3.94-78.13,2-59.65,9-118.67,26.14-176,14.67-49,35.94-94.4,71.89-132.36,33.79-35.67,75.66-51.62,122.92-58.12,24.46-3.36,45.77,2,65.73,16,19.78,13.92,39.85,27.8,60.74,39.63,29.39,16.67,62,26.33,96,29.66,48.89,4.77,94.61-6.86,137.68-28.68,18.53-9.39,35.84-21.72,52.3-34.53,27.86-21.7,58.19-26.93,92.19-19.89,35.51,7.35,68.73,19.84,95.27,44.73,21,19.73,39,42.3,52.47,68.54,49.2,95.72,59.69,198.75,55.72,303.65-2.26,59.49-27.41,109.8-78.89,144.16-26.29,17.54-54.39,29.78-86.27,32-2.14.15-4.4.12-6,2ZM561.42,1096c88.6,0,177.2.17,265.79-.13,22.7-.07,44.52-2.83,66-13.2,44.12-21.34,65.76-57,67.2-103.69,2.55-83.18-5.21-165.31-37.3-243.39a213.7,213.7,0,0,0-43.93-66.77c-20-20.8-46.34-30.32-74.66-34.77-12.51-2-23.09.29-33.6,7.73-19.72,14-39.2,28.79-60.54,39.86-64.24,33.31-132.22,47-204.34,33-32.59-6.3-64.16-16.32-93-32.62-23.85-13.48-46.17-29.65-69.06-44.79a24.35,24.35,0,0,0-16.33-4c-45.7,3.55-80.71,24-106,62.69-23.91,36.53-37.45,76.57-46,118.81C163.66,873,157.33,931.88,163.72,991c6.3,58.17,39.28,82.57,84.55,99.36,15.62,5.79,32.76,5.64,49.53,5.62Q429.61,1095.85,561.42,1096Z"/><path d="M822.67,284.31c-.58,56.34-14.51,108.56-46.2,156-14.3,21.43-31.81,39.3-50.3,56.69-44.32,41.69-97.86,60.1-157.66,63.54-63.78,3.67-122.07-12.22-172.54-51.31-39.43-30.53-70.62-68.85-89.29-115.61-22.36-56-27-113.91-14.4-173,9.62-45.21,29.79-84.81,59.62-120.37a271.82,271.82,0,0,1,66.34-57C502-8.4,588.9-8.68,675,33.48c50.89,24.91,89.5,66.21,116.15,116.73C813.18,191.89,823.42,237,822.67,284.31Zm-65.11-2.85c-.2-3.54-.46-8.25-.74-13C752.15,188.39,711.8,128.82,643,93c-62.48-32.53-128.36-30.85-190.36,7.84C393,138,358.87,191.43,352.07,261.26c-7.47,76.63,19.56,140.18,77.83,189.83,73.48,62.61,200.38,53.27,262.32-12.55C734.46,393.65,757,343.5,757.56,281.46Z"/></g></g></svg>